<?xml version="1.0" standalone="no"?>
<!DOCTYPE svg PUBLIC "-//W3C//DTD SVG 20010904//EN"
 "http://www.w3.org/TR/2001/REC-SVG-20010904/DTD/svg10.dtd">
<svg version="1.0" xmlns="http://www.w3.org/2000/svg"
 width="700.000000pt" height="700.000000pt" viewBox="0 0 700.000000 700.000000"
 preserveAspectRatio="xMidYMid meet">
<metadata>
Created by potrace 1.14, written by Peter Selinger 2001-2017
</metadata>
<g transform="translate(0.000000,700.000000) scale(0.100000,-0.100000)"
fill="#000000" stroke="none">
<path d="M3278 6996 c-1 -2 -42 -6 -89 -10 -47 -4 -95 -8 -105 -10 -10 -2 -45
-7 -78 -11 -101 -12 -215 -35 -380 -76 -296 -75 -599 -199 -881 -362 -103 -60
-265 -165 -315 -204 -8 -6 -51 -40 -95 -74 -426 -331 -813 -825 -1020 -1299
-25 -58 -50 -114 -55 -125 -45 -93 -150 -427 -176 -560 -2 -11 -10 -54 -19
-95 -29 -147 -35 -193 -52 -370 -15 -163 -8 -592 12 -711 2 -13 6 -46 9 -74 9
-78 22 -152 51 -285 21 -96 91 -339 114 -395 5 -11 25 -65 46 -120 63 -166
249 -531 312 -610 4 -6 34 -49 65 -95 170 -255 433 -535 708 -755 92 -74 370
-265 386 -265 4 0 15 -6 23 -14 46 -40 413 -212 571 -268 83 -29 268 -87 293
-92 12 -2 60 -13 107 -24 109 -27 200 -44 299 -58 25 -3 57 -8 71 -10 163 -25
682 -25 842 1 13 2 46 7 73 10 71 10 87 13 115 18 14 3 43 8 65 12 22 4 76 16
120 27 44 10 87 21 96 23 223 51 591 200 823 334 49 28 91 51 93 51 10 0 268
180 353 247 152 119 324 280 450 422 36 41 70 79 76 85 65 68 263 353 352 508
46 79 172 331 172 342 0 3 11 29 24 58 57 127 151 421 182 573 17 81 54 301
59 350 4 33 9 71 11 85 9 46 11 524 4 605 -15 153 -21 210 -25 225 -2 8 -7 35
-10 60 -17 129 -80 384 -136 552 -348 1038 -1164 1854 -2204 2206 -167 56
-419 119 -555 137 -19 3 -46 7 -60 10 -13 2 -52 7 -86 11 -33 3 -74 8 -90 10
-33 5 -540 14 -546 10z m3004 -2132 c-4 -7 -52 -60 -107 -119 -55 -60 -113
-122 -129 -139 -93 -102 -119 -126 -134 -127 -101 -4 -3274 0 -3279 5 -3 3 1
14 9 23 9 10 69 95 133 188 65 94 121 172 125 175 5 3 769 5 1698 5 1267 0
1689 -3 1684 -11z m-28 -1132 c-30 -24 -252 -214 -343 -293 -42 -36 -85 -71
-96 -76 -14 -7 -679 -11 -2103 -11 -1917 1 -2081 2 -2070 17 13 16 209 242
218 251 3 3 30 33 59 68 l54 62 2151 0 c2040 0 2150 -1 2130 -18z m109 -1111
c5 0 -36 -31 -90 -67 -90 -62 -168 -115 -283 -195 -25 -18 -77 -54 -116 -81
l-72 -49 -2568 0 c-1413 0 -2577 1 -2587 1 -21 0 -26 -4 153 159 69 63 150
137 180 166 30 28 63 56 72 61 13 7 5266 12 5311 5z"/>
</g>
</svg>
